<svg width="512" height="512" viewBox="0 0 512 512" fill="none" xmlns="http://www.w3.org/2000/svg">
  <defs>
    <linearGradient id="keyBase" x1="62" y1="178" x2="438" y2="334" gradientUnits="userSpaceOnUse">
      <stop offset="0" stop-color="#37C3FF" />
      <stop offset="0.55" stop-color="#2BA7F0" />
      <stop offset="1" stop-color="#1F7FDC" />
    </linearGradient>
    <linearGradient id="keySpecular" x1="248" y1="150" x2="402" y2="266" gradientUnits="userSpaceOnUse">
      <stop offset="0" stop-color="#A6E6FF" stop-opacity="0.95" />
      <stop offset="1" stop-color="#A6E6FF" stop-opacity="0" />
    </linearGradient>
  </defs>

  <g transform="rotate(-26 256 256)">
    <path
      d="M54 233C90 230 130 227 170 226H236C252 226 268 218 279 206L295 189C312 170 336 158 362 158C418 158 464 204 464 260C464 316 418 362 362 362C336 362 312 350 295 331L279 314C268 302 252 294 236 294H206V334H170V294H138V334H102V294H54V233Z"
      fill="url(#keyBase)"
      stroke="#1E2530"
      stroke-width="16"
      stroke-linejoin="round"
      stroke-linecap="round"
    />

    <circle cx="362" cy="260" r="46" fill="#F7FCFF" stroke="#1E2530" stroke-width="12" />

    <path
      d="M298 184C326 160 374 160 404 186C376 182 348 193 328 213C314 227 300 247 292 268C274 244 276 206 298 184Z"
      fill="url(#keySpecular)"
    />
  </g>
</svg>
